#!OML:ASF H:\charlestonDancing\Project 1\Capture day 1\Session 1\femaleDancer.ASF
:FULLY-SPECIFIED
:DEGREES
95
root 0.0776712 17.6832 -1.66394 17.0256 -74.4221 -8.88197
lowerback 14.3869 0.732669 4.55613
upperback 2.31078 1.64497 1.29795
thorax -5.52325 0.687653 -1.50924
lowerneck 0.0665213 -4.8087 0.141215
upperneck 0.307334 -6.422 2.66073
head 0.168388 -3.20842 0.771236
rclavicle 7.55382e-015 7.55382e-015
rhumerus -31.2627 -0.324836 -74.1984
rradius 64.2015
rwrist 23.345
rhand -40.398 -49.8241
rfingers 7.12502
rthumb -13.3514 -79.3763
lclavicle 7.55382e-015 7.55382e-015
lhumerus -46.402 27.6065 12.3462
lradius 148.576
lwrist 9.67581
lhand -2.69431 2.30941
lfingers 7.12502
lthumb 23.0073 30.9563
rfemur -31.5745 -6.6094 24.814
rtibia 47.4027
rfoot -16.505 0.0935305
rtoes -23.2489
lfemur -21.5878 -6.9974 -21.1874
ltibia 42.2061
lfoot -13.127 -20.6206
ltoes -10.3453
96
root 0.0340438 17.5413 -1.73106 16.6013 -73.8626 -8.74477
lowerback 14.7669 0.778705 4.96094
upperback 2.44282 1.78441 1.41165
thorax -5.57396 0.745752 -1.64932
lowerneck -0.108607 -4.98381 -0.256667
upperneck 0.167693 -6.65204 2.57393
head 0.167893 -3.32356 0.805847
rclavicle 6.95746e-015 -2.38542e-015
rhumerus -31.9385 -1.17642 -74.6218
rradius 61.3923
rwrist 22.9396
rhand -40.4373 -49.335
rfingers 7.12502
rthumb -13.3893 -78.8847
lclavicle 6.95746e-015 -2.38542e-015
lhumerus -46.0699 28.3131 11.1917
lradius 147.282
lwrist 10.5391
lhand -2.97192 1.83445
lfingers 7.12502
lthumb 22.7409 30.5142
rfemur -30.7227 -5.52425 24.942
rtibia 47.0728
rfoot -19.0792 -1.18748
rtoes -20.1861
lfemur -23.418 -7.32719 -20.9353
ltibia 46.5882
lfoot -13.3377 -20.8877
ltoes -10.8171
97
root 0.00898772 17.3856 -1.80131 16.8028 -73.3487 -9.44972
lowerback 15.4352 0.894582 5.5205
upperback 2.58669 2.06648 1.65632
thorax -5.75709 0.865475 -1.77262
lowerneck -0.0157459 -5.14517 -0.603597
upperneck -0.147742 -6.85916 2.31743
head 0.0624446 -3.42997 0.791162
rclavicle -3.18055e-015 0
rhumerus -32.4957 -2.23467 -74.7101
rradius 58.1512
rwrist 22.5651
rhand -39.7734 -47.8701
rfingers 7.12502
rthumb -12.7494 -77.4608
lclavicle -3.18055e-015 0
lhumerus -45.4893 28.7319 10.4628
lradius 145.91
lwrist 11.1423
lhand -3.61832 1.55166
lfingers 7.12502
lthumb 22.1204 30.3063
rfemur -30.1387 -4.09763 25.2684
rtibia 47.348
rfoot -21.2737 -2.61255
rtoes -18.6746
lfemur -25.5102 -7.84213 -20.3951
ltibia 51.5651
lfoot -11.4213 -20.9263
ltoes -9.88389
98
root -0.000454456 17.2546 -1.86744 17.2946 -73.1232 -10.7845
lowerback 16.5483 1.09042 6.07698
upperback 2.78235 2.49262 2.00782
thorax -6.11678 1.04647 -1.82444
lowerneck 0.24632 -5.16502 -0.827738
upperneck -0.552623 -6.88164 1.74851
head -0.115775 -3.44359 0.66976
rclavicle 1.03368e-014 -1.59028e-014
rhumerus -32.9426 -3.33581 -74.5472
rradius 54.6431
rwrist 22.0948
rhand -38.4035 -47.0644
rfingers 7.12502
rthumb -11.4284 -76.7329
lclavicle 1.03368e-014 -1.59028e-014
lhumerus -45.0484 29.0837 9.79174
lradius 144.548
lwrist 12.0374
lhand -4.20353 1.15171
lfingers 7.12502
lthumb 21.5585 29.9718
rfemur -29.4701 -2.76306 25.8573
rtibia 47.7976
rfoot -22.5832 -4.15169
rtoes -17.7617
lfemur -27.6714 -8.17585 -19.7218
ltibia 57.0481
lfoot -8.24192 -20.3258
ltoes -10.2511
99
root 0.00315819 17.1498 -1.92393 17.3218 -73.3247 -11.9075
lowerback 18.0509 1.33222 6.41008
upperback 3.03072 2.9748 2.35515
thorax -6.63069 1.24915 -1.78724
lowerneck 0.53811 -5.02954 -0.943618
upperneck -0.919718 -6.70745 0.953211
head -0.300396 -3.35558 0.46419
rclavicle 3.53837e-014 9.54166e-015
rhumerus -33.4209 -4.50181 -74.2167
rradius 51.0859
rwrist 21.4665
rhand -37.4287 -46.5341
rfingers 7.12502
rthumb -10.4882 -76.2525
lclavicle 3.53837e-014 9.54166e-015
lhumerus -45.0133 29.4218 9.04394
lradius 143.269
lwrist 13.3067
lhand -4.47857 0.392806
lfingers 7.12502
lthumb 21.2943 29.2429
rfemur -28.774 -1.69912 26.3638
rtibia 48.4034
rfoot -22.1486 -5.12056
rtoes -16.5246
lfemur -29.7101 -8.27561 -19.26
ltibia 62.6271
lfoot -6.92318 -18.5724
ltoes -18.8743
100
root 0.00363877 17.0753 -1.94716 25.6251 -72.9457 -21.0915
lowerback 18.9169 1.32803 9.36467
upperback 3.1442 3.64049 3.23933
thorax -6.79053 1.48298 -2.66354
lowerneck 0.866614 -4.83474 -0.879617
upperneck -1.28914 -6.46304 0.0834588
head -0.499394 -3.22947 0.209435
rclavicle 1.03368e-014 -2.06736e-014
rhumerus -33.988 -5.71138 -73.6818
rradius 47.2609
rwrist 21.5605
rhand -37.4264 -45.313
rfingers 7.12502
rthumb -10.4859 -75.0314
lclavicle 1.03368e-014 -2.06736e-014
lhumerus -45.352 29.5464 8.44952
lradius 142.165
lwrist 14.1978
lhand -4.88508 -0.64809
lfingers 7.12502
lthumb 20.9038 28.2456
rfemur -28.3047 -0.899303 29.4579
rtibia 48.61
rfoot -21.8938 -5.57452
rtoes -15.2282
lfemur -32.4445 -7.93043 -16.0709
ltibia 68.1955
lfoot -6.70146 -16.4566
ltoes -30.6805
101
root -0.00161039 17.0332 -1.95735 29.2899 -72.926 -25.2585
lowerback 19.5032 1.42047 10.7871
upperback 3.26876 4.11272 3.68811
thorax -6.84517 1.6646 -3.0937
lowerneck 1.24017 -4.62922 -0.76843
upperneck -1.70138 -6.20703 -0.529756
head -0.712358 -3.096 0.024178
rclavicle -6.75868e-015 -2.38542e-014
rhumerus -34.7258 -6.97896 -73.0538
rradius 43.5795
rwrist 22.3385
rhand -36.5997 -45.0936
rfingers 7.12502
rthumb -9.6884 -74.8508
lclavicle -6.75868e-015 -2.38542e-014
lhumerus -45.8422 29.4216 8.15751
lradius 141.302
lwrist 14.4434
lhand -5.57917 -1.73653
lfingers 7.12502
lthumb 20.2369 27.2293
rfemur -27.8707 -0.781644 30.8309
rtibia 48.5882
rfoot -22.0939 -5.67059
rtoes -16.3198
lfemur -35.096 -7.91413 -14.6545
ltibia 73.2208
lfoot -6.5953 -16.0207
ltoes -27.9102
102
root -0.0221247 17.0456 -1.96169 29.2308 -73.3662 -25.9513
lowerback 20.3631 1.52565 10.9664
upperback 3.55204 4.36437 3.83718
thorax -6.95868 1.77053 -3.12203
lowerneck 1.58174 -4.37687 -0.507077
upperneck -2.06327 -5.88522 -1.02944
head -0.906104 -2.92942 -0.156909
rclavicle -1.82882e-014 -5.00937e-014
rhumerus -35.6546 -8.37072 -72.4367
rradius 40.229
rwrist 22.0275
rhand -35.6088 -43.2636
rfingers 7.12502
rthumb -8.73228 -73.063
lclavicle -1.82882e-014 -5.00937e-014
lhumerus -46.6133 29.09 8.01046
lradius 140.728
lwrist 14.1755
lhand -6.58311 -2.74983
lfingers 7.12502
lthumb 19.2717 26.3153
rfemur -26.7182 -1.09901 30.9049
rtibia 48.0687
rfoot -22.1151 -5.35459
rtoes -17.6619
lfemur -36.909 -8.2758 -14.6653
ltibia 77.54
lfoot -7.61988 -14.8832
ltoes -28.3685
103
root -0.050462 17.0968 -1.96821 27.5752 -73.5127 -24.8322
lowerback 20.7445 1.42521 10.6699
upperback 3.89821 4.17716 3.9663
thorax -6.83484 1.69502 -2.78245
lowerneck 1.82095 -4.06067 -0.0898104
upperneck -2.29375 -5.47411 -1.59498
head -1.04747 -2.71845 -0.393085
rclavicle 6.12257e-014 -8.18993e-014
rhumerus -36.5997 -9.82678 -71.6984
rradius 37.3484
rwrist 21.7963
rhand -34.9943 -41.808
rfingers 7.12502
rthumb -8.13931 -71.6312
lclavicle 6.12257e-014 -8.18993e-014
lhumerus -47.976 28.6816 7.96604
lradius 140.466
lwrist 13.6277
lhand -7.60516 -3.77205
lfingers 7.12502
lthumb 18.2887 25.3882
rfemur -25.6066 -1.73901 30.5642
rtibia 47.2655
rfoot -21.8336 -4.90555
rtoes -17.7214
lfemur -38.8009 -9.28524 -15.0332
ltibia 81.207
lfoot -8.6236 -13.5561
ltoes -27.4819
104
root -0.0852903 17.1703 -1.97288 25.7817 -73.3354 -23.4025
lowerback 20.7256 1.14992 10.3928
upperback 4.25126 3.71286 4.10155
thorax -6.51745 1.49681 -2.36194
lowerneck 2.0603 -3.72629 0.399754
upperneck -2.40687 -5.03129 -2.09749
head -1.14944 -2.49274 -0.628607
rclavicle 3.4191e-014 1.90833e-014
rhumerus -37.6711 -11.2256 -70.9319
rradius 34.8458
rwrist 21.7696
rhand -35.4159 -41.8852
rfingers 7.12502
rthumb -8.54612 -71.6923
lclavicle 3.4191e-014 1.90833e-014
lhumerus -49.6845 28.1854 8.09526
lradius 140.411
lwrist 13.0774
lhand -8.44856 -4.75547
lfingers 7.12502
lthumb 17.4772 24.4789
rfemur -24.4661 -2.33416 30.2593
rtibia 46.1242
rfoot -21.4088 -4.73809
rtoes -17.6791
lfemur -40.8199 -10.658 -15.3328
ltibia 84.2703
lfoot -9.58207 -12.3245
ltoes -25.1761
105
root -0.121908 17.2598 -1.97434 24.4772 -73.1103 -22.1949
lowerback 20.5254 0.872117 10.275
upperback 4.42492 3.27711 4.12212
thorax -6.27581 1.30391 -2.15955
lowerneck 2.49139 -3.45194 0.901125
upperneck -2.50401 -4.65554 -2.34517
head -1.27021 -2.30188 -0.787293
rclavicle -7.55382e-014 1.11319e-014
rhumerus -39.2338 -12.8673 -69.9503
rradius 32.7258
rwrist 22.6169
rhand -36.3161 -42.3922
rfingers 7.12502
rthumb -9.41477 -72.1619
lclavicle -7.55382e-014 1.11319e-014
lhumerus -51.269 27.4039 8.40607
lradius 140.451
lwrist 12.6256
lhand -9.2794 -5.56081
lfingers 7.12502
lthumb 16.6775 23.7427
rfemur -23.4546 -2.46021 30.0239
rtibia 44.7
rfoot -20.7338 -4.90393
rtoes -17.4898
lfemur -43.0099 -11.9752 -15.5401
ltibia 86.6788
lfoot -10.8346 -11.0946
ltoes -24.5386
106
root -0.157515 17.3702 -1.97057 23.3726 -73.1348 -21.0473
lowerback 20.3751 0.687247 10.193
upperback 4.49602 2.9846 3.99038
thorax -6.14601 1.17352 -2.1815
lowerneck 2.90684 -3.24548 1.27784
upperneck -2.591 -4.36064 -2.3112
head -1.37367 -2.15449 -0.839158
rclavicle 1.39149e-014 1.43125e-014
rhumerus -41.222 -14.9814 -68.4964
rradius 31.0097
rwrist 24.5728
rhand -38.2877 -44.28
rfingers 7.12502
rthumb -11.3168 -73.9547
lclavicle 1.39149e-014 1.43125e-014
lhumerus -52.618 26.4358 8.94204
lradius 140.517
lwrist 12.0771
lhand -10.0489 -6.22726
lfingers 7.12502
lthumb 15.9366 23.1371
rfemur -22.4879 -2.12473 29.6827
rtibia 43.0646
rfoot -19.7498 -5.21982
rtoes -17.2129
lfemur -45.071 -13.0042 -15.8438
ltibia 88.2777
lfoot -11.7676 -9.99529
ltoes -24.3139
